PathFileType	3	(X/Y/Z)	C:\Users\koon_\Desktop\
DataRate	CameraRate	NumFrames	NumMarkers	Units	OrigDataRate	OrigDataStartFrame	OrigNumFrames
100.0	100.0	5	27	mm	100.0	376	3002	
Frame#	Time	GM:LFHD			GM:RFHD			GM:LBHD			GM:RBHD			GM:C7			GM:T10			GM:CLAV			GM:STRN			GM:RBAK			GM:LSHO			GM:LUPA			GM:LELB			GM:LFRA			GM:LWRA			GM:LWRB			GM:LFIN			GM:RSHO			GM:RUPA			GM:RELB			GM:RFRA			GM:RWRA			GM:RWRB			GM:RFIN			GM:LASI			GM:RASI			GM:LPSI			GM:RPSI			
		X1	Y1	Z1	X2	Y2	Z2	X3	Y3	Z3	X4	Y4	Z4	X5	Y5	Z5	X6	Y6	Z6	X7	Y7	Z7	X8	Y8	Z8	X9	Y9	Z9	X10	Y10	Z10	X11	Y11	Z11	X12	Y12	Z12	X13	Y13	Z13	X14	Y14	Z14	X15	Y15	Z15	X16	Y16	Z16	X17	Y17	Z17	X18	Y18	Z18	X19	Y19	Z19	X20	Y20	Z20	X21	Y21	Z21	X22	Y22	Z22	X23	Y23	Z23	X24	Y24	Z24	X25	Y25	Z25	X26	Y26	Z26	X27	Y27	Z27	
376	3.75	254.35985	1537.7637	-45.301952	105.17607	1575.3943	-53.520054	256.93466	1518.8154	-177.19835	99.231537	1561.7231	-168.03444	130.25143	1391.6288	-225.0481	65.92836	1211.3564	-285.71146	124.53155	1317.5123	-71.174332	78.513985	1176.4602	-35.468689	6.8758831	1322.6205	-276.13049	287.63345	1307.2567	-168.91203	334.68747	1197.1227	-172.55508	352.2132	993.80621	-229.57297	300.86438	896.87842	-125.81714	288.40543	833.93842	-92.917603	317.60022	796.70203	-140.29875	283.05966	750.06622	-60.356335	-46.294224	1414.85	-125.59332	-182.83417	1219.649	-144.27287	-239.14944	1156.4579	-196.90863	-228.48509	1089.0018	-130.61441	-258.10739	962.14703	-106.85648	-291.46448	952.354	-158.96281	-294.77219	881.73053	-95.082596	121.19314	896.77869	-76.224495	-163.7979	918.88593	-77.939377	42.889153	947.74396	-289.7908	-95.18541	942.27411	-285.19247
377	3.76	260.42789	1534.1105	-44.535477	111.72572	1573.3136	-53.045376	262.94116	1515.1442	-176.47511	105.39097	1559.72	-167.57236	134.73857	1389.6918	-224.55307	67.571808	1210.4606	-285.51068	128.14996	1315.2621	-70.768875	80.361656	1174.7383	-35.220966	10.216297	1322.4376	-275.73438	290.88763	1303.059	-168.72667	337.03415	1192.7888	-172.70203	353.85056	989.63513	-230.09134	301.90424	893.15417	-125.95524	289.19196	830.66003	-92.892067	317.88965	793.09174	-140.3499	282.48254	746.7066	-60.293804	-41.48222	1415.1167	-124.61186	-180.48851	1221.5551	-143.7466	-237.62027	1159.1503	-196.68143	-227.2677	1091.218	-130.7502	-257.88651	964.56689	-107.42973	-291.59891	955.29132	-159.53114	-295.16418	884.36981	-95.842354	120.59808	896.41412	-76.327156	-164.25041	919.79761	-78.149727	42.2332	947.66895	-290.0509	-95.692703	942.52258	-285.3801
378	3.77	266.45563	1530.385	-43.80246	118.1542	1571.182	-52.53582	269.02786	1511.4395	-175.70273	111.85721	1557.7317	-167.04015	139.17378	1387.6919	-224.03893	69.153481	1209.5253	-285.18103	131.82695	1313.0144	-70.342621	82.241211	1173.1437	-34.941566	13.51279	1322.2753	-275.21262	293.95212	1298.8708	-168.53015	339.28091	1188.4508	-172.74863	355.46249	985.49945	-230.58202	303.20053	889.87537	-126.19619	289.85086	827.28607	-92.922417	317.80402	789.23871	-140.26369	281.86823	743.26807	-60.323238	-36.640572	1415.3676	-123.75723	-178.20552	1223.5121	-143.31549	-235.99904	1161.8684	-196.44273	-226.02135	1093.4791	-130.87941	-257.76773	967.06879	-108.02438	-291.67462	958.33856	-160.00278	-295.60956	887.08118	-96.717934	119.99194	895.97864	-76.469887	-164.82555	919.90979	-78.923981	41.531693	947.75293	-290.24823	-96.145782	942.80841	-285.60623
379	3.78	272.44736	1526.5548	-42.998672	124.67247	1568.9761	-52.009022	275.07672	1507.6877	-174.98431	118.75767	1555.7018	-166.5685	143.50021	1385.6725	-223.5686	70.639069	1208.6322	-284.87427	135.44293	1310.7997	-69.935059	84.189384	1171.5668	-34.372799	16.793524	1322.0952	-274.68057	296.96201	1294.6248	-168.3954	341.44522	1184.1456	-172.82631	356.99063	981.26575	-230.98453	304.16885	886.28522	-126.33924	290.43954	823.87622	-92.89267	318.00485	785.46729	-140.29123	281.28323	739.88977	-60.342869	-31.76314	1415.6646	-122.87351	-176.00359	1225.5939	-142.74603	-234.4131	1164.7722	-196.06519	-224.63635	1095.877	-130.9408	-257.51111	969.62048	-108.56396	-291.72705	961.50684	-160.50943	-295.96338	889.89063	-97.618546	119.37671	895.53259	-76.561447	-165.36365	920.48907	-79.489418	41.076309	947.80627	-290.38092	-96.582565	943.13849	-285.8447
380	3.79	278.45319	1522.6292	-42.290024	131.17024	1566.7683	-51.625446	281.12909	1503.8645	-174.27042	125.4856	1553.5872	-166.08183	147.73488	1383.5883	-223.04143	72.138985	1207.7125	-284.5022	138.82166	1308.5317	-69.761574	85.880508	1170.0234	-34.293884	19.958879	1321.8514	-274.09515	299.90414	1290.3787	-168.3548	343.55988	1179.8112	-172.88942	358.48297	977.15503	-231.40868	305.29971	882.48846	-126.78134	290.9783	820.42999	-92.876015	318.09821	781.75732	-140.29057	280.71268	736.38257	-60.431587	-26.932396	1415.9213	-121.9855	-173.64267	1227.7476	-142.18105	-232.97345	1167.9282	-195.82884	-223.32362	1098.3297	-130.95654	-257.25827	972.22369	-109.20402	-291.82758	964.70398	-160.92015	-296.23441	892.79333	-98.35733	118.74451	895.05627	-76.584618	-165.73672	920.99438	-79.928963	40.740044	947.91193	-290.51819	-96.958466	943.5097	-286.10632
